# xmcd CD database file
#
# Track frame offsets:
#	150
#	15150
#	25697
#	36715
#	52415
#	63762
#	75375
#	93540
#	104117
#	119617
#	132250
#	144790
#	158575
#	174647
#	184330
#	193735
#
# Disc length: 2625 seconds
#
# Revision: 1
# Processed by: cddbd v1.5.1PL0 Copyright (c) Steve Scherf et al.
# Submitted via: CDex 1.51
#
DISCID=dc0a3f10
DTITLE=Taggy Tones - Viking Attack
DYEAR=1992
DGENRE=Neo-Rockabilly
TTITLE0=So Fine, So Kind
TTITLE1=B.C. Stomp
TTITLE2=501
TTITLE3=John And Mary
TTITLE4=Pretty Eyes
TTITLE5=Rebel Cat
TTITLE6=To My Dad
TTITLE7=Paris, Copenhagen
TTITLE8=Crazy Love
TTITLE9=Viking Attack
TTITLE10=Crazy Kid
TTITLE11=From Me To You
TTITLE12=C'Mon Johnny
TTITLE13=Sound Of Guns
TTITLE14=Letter To My Baby
TTITLE15=Myggen svermer
EXTD=YEAR: 1992
EXTT0=
EXTT1=
EXTT2=
EXTT3=
EXTT4=
EXTT5=
EXTT6=
EXTT7=
EXTT8=
EXTT9=
EXTT10=
EXTT11=
EXTT12=
EXTT13=
EXTT14=
EXTT15=
PLAYORDER=
